<?xml version="1.0" standalone="no"?><!DOCTYPE svg PUBLIC "-//W3C//DTD SVG 1.1//EN" "http://www.w3.org/Graphics/SVG/1.1/DTD/svg11.dtd"><svg t="1614325141902" class="icon" viewBox="0 0 1024 1024" version="1.1" xmlns="http://www.w3.org/2000/svg" p-id="2918" xmlns:xlink="http://www.w3.org/1999/xlink" width="20" height="20"><defs><style type="text/css"></style></defs><path d="M906.541176 665.6c-21.082353 0-36.141176-15.058824-36.141176-36.141176v-219.858824c0-18.070588 15.058824-36.141176 36.141176-36.141176s36.141176 15.058824 36.141177 36.141176v219.858824c0 18.070588-15.058824 36.141176-36.141177 36.141176z m-542.117647-551.152941L301.176471 36.141176c-3.011765-6.023529-3.011765-15.058824 3.011764-18.070588s15.058824-3.011765 18.070589 3.011765l66.258823 81.317647c36.141176-15.058824 78.305882-27.105882 123.482353-27.105882s87.341176 9.035294 123.482353 27.105882L701.741176 21.082353c3.011765-6.023529 12.047059-6.023529 18.070589-3.011765 6.023529 3.011765 6.023529 12.047059 3.011764 18.070588l-63.247058 78.305883c72.282353 39.152941 126.494118 108.423529 141.552941 189.741176H222.870588c15.058824-81.317647 69.270588-150.588235 141.552941-189.741176z m271.058824 114.447059c21.082353 0 36.141176-15.058824 36.141176-33.129412 0-18.070588-15.058824-33.129412-36.141176-33.129412s-36.141176 15.058824-36.141177 33.129412c0 18.070588 18.070588 33.129412 36.141177 33.129412z m-246.964706 0c21.082353 0 36.141176-15.058824 36.141177-33.129412 0-18.070588-15.058824-33.129412-36.141177-33.129412s-36.141176 15.058824-36.141176 33.129412c0 18.070588 15.058824 33.129412 36.141176 33.129412z m-271.058823 436.705882c-21.082353 0-36.141176-15.058824-36.141177-36.141176v-219.858824c0-18.070588 15.058824-36.141176 36.141177-36.141176s36.141176 15.058824 36.141176 36.141176v219.858824c0 18.070588-15.058824 36.141176-36.141176 36.141176zM798.117647 752.941176c0 36.141176-30.117647 63.247059-63.247059 63.247059h-45.17647V963.764706c0 33.129412-27.105882 60.235294-60.235294 60.235294s-60.235294-27.105882-60.235295-60.235294v-147.576471h-108.423529V963.764706c0 33.129412-27.105882 60.235294-60.235294 60.235294s-60.235294-27.105882-60.235294-60.235294v-147.576471H289.129412c-36.141176 0-63.247059-27.105882-63.247059-63.247059V376.470588h575.247059L798.117647 752.941176z" fill="#3DDB85" p-id="2919"></path></svg>